<svg xmlns="http://www.w3.org/2000/svg" xmlns:xlink="http://www.w3.org/1999/xlink" width="840.67" height="517.058" viewBox="0 0 840.67 517.058"><path fill="#2f2e41" d="M268.19167,184.27551l-5.33077,1.69513c-.06691-.28997-.14498-.5799-.23419-.86987-.69143-2.22487-1.0037,1.7732-2.79922,.28997,.12824,1.91819-2.63191-17.79901-2.89959-15.90311-.11153,.79738,.85316,14.00725,.66914,14.78789l-41.39713,.39588c.23419-3.98691-1.89031-2.45347-3.76946-5.97201-1.10964,3.30664-1.2825,.90891-3.03899,3.90329-.73605,1.26576-1.52227,2.48138-2.36985,3.66906-.40705,.58552-.83642,1.15984-1.27692,1.72862l-.56319,.17844-2.78806-54.646c0-18.01645,15.61314-26.76539,27.88061-15.05553,6.51816,6.22188,22.46064-1.92377,26.13528,3.97578,3.6691,5.90509,5.091,14.05738,5.091,23.06842l6.69135,38.75405Z"/><g><polygon fill="#ffb7b7" points="202.911 494.667 211.892 494.879 216.898 454.53 203.644 454.217 202.911 494.667"/><path fill="#2f2e41" d="M233.72401,513.40436h0c0,1.5172-1.07669,2.74715-2.40488,2.74715h-17.82672s-1.75429-7.0518-8.90683-10.08658l-.49365,10.08658h-9.19618l1.11421-16.21877s-2.46002-8.6771,2.64892-13.11258c5.109-4.43548,.9709-3.81803,.9709-3.81803l2.00979-10.03819,13.89642,1.63413,.10218,15.75761,6.74383,15.6409,9.89157,4.88627c.8804,.43489,1.45032,1.4258,1.45032,2.52148l.00011,.00003Z"/></g><g><polygon fill="#ffb7b7" points="230.235 488.092 238.868 490.576 253.949 452.818 241.209 449.152 230.235 488.092"/><path fill="#2f2e41" d="M255.28453,514.03476h0c-.385,1.46753-1.73856,2.38401-3.02327,2.04697l-17.24321-4.52368s.09258-7.26615-6.05573-12.01661l-3.03705,9.63116-8.89517-2.33361,5.19339-15.40515s-.17762-9.01732,5.88964-12.01119c6.06731-2.99385,1.90798-3.44669,1.90798-3.44669l4.49128-9.19962,13.02688,5.10697-3.89979,15.26776,2.55408,16.84024,8.32786,7.2364c.74122,.64406,1.04104,1.74716,.763,2.80698l.0001,.00006Z"/></g><polygon fill="#6c63ff" points="252.021 169.523 224.698 172.311 207.412 271.566 259.827 279.93 252.021 169.523"/><path fill="#2f2e41" d="M199.60536,187.92414l2.78806,64.68302-24.53494,42.93614,17.84359,16.17076s32.89912-65.24063,34.01435-83.08423c1.11522-17.84359-5.29888-54.70896-5.29888-54.70896l-24.81218,14.00327Z"/><path fill="#2f2e41" d="M277.67108,187.92414l-2.78806,64.68302,24.53494,42.93614-37.91763,17.28598s-12.82508-66.35586-13.94031-84.19945c-1.11522-17.84359,5.29888-54.70896,5.29888-54.70896l24.81218,14.00327Z"/><polygon fill="#2f2e41" points="210.758 265.432 197.933 267.105 190.684 344.613 200.721 461.966 217.142 461.966 229.159 331.23 250.348 380.3 234.845 461.966 250.348 463.547 281.574 378.628 259.827 279.93 210.758 265.432"/><path fill="#ffb6b6" d="M263.39283,335.40409c.60669-2.13645,1.64563-3.95874,2.88255-5.25866l4.49401-20.71759,9.7957,2.42682-5.6134,20.75464c.36914,1.756,.29529,3.85234-.31141,5.9888-1.38599,4.88072-5.02738,8.12229-8.13328,7.24029-3.1059-.882-4.50015-5.55356-3.11417-10.43427h0Z"/><path fill="#2f2e41" d="M264.74801,183.73423s18.086-.92116,19.4031,11.07227c1.3171,11.99343,5.53024,80.29996,5.53024,80.29996l-9.76619,46.10546-13.92644-1.93524,6.15434-58.68709-7.39506-76.85537Z"/><path fill="#ffb6b6" d="M109.73504,219.55889c2.05854,.85419,3.75348,2.1025,4.90465,3.48713l20.1243,6.89859-3.56275,9.47992-20.0305-8.01861c-1.79331,.16285-3.8741-.15557-5.93264-1.00976-4.70273-1.95139-7.50834-5.9593-6.26654-8.95193,1.2418-2.99263,6.06074-3.83672,10.76346-1.88534h.00001Z"/><path fill="#2f2e41" d="M224.64825,190.79088l.00002,.00002-45.90965,61.9706-53.81583-14.81885,2.33982-14.03891,40.97876,7.76134,22.86159-35.14608c7.46505-14.4301,22.17835-17.33619,33.5453-5.72811Z"/><circle cx="236.346" cy="143.741" r="20.136" fill="#ffb7b7"/><path fill="#2f2e41" d="M265.96122,143.0122h-6.78367l-1.84252-2.48317c-.89508,0-1.55448,2.38735-2.41113,2.20514-2.61306-.55581-5.01145-1.91542-6.97643-3.81105-.16597-.16011-.33795-.31398-.51569-.46105l.00296,.04567c.1568,2.45486-1.86797,4.50446-4.32783,4.50446h-13.08144c-3.57144,0-6.17636,3.37962-5.26696,6.83334l-1.17582,42.23654c0-8.6207-38.14069-52.63858-12.26747-70.25914,5.98998-4.07938,10.33812-3.34567,18.95882-3.34567h0c13.2501-7.06675,29.91921-.47198,34.2246,13.91438,.96441,3.22254,1.46258,6.78563,1.46258,10.62055Z"/><path fill="#2f2e41" d="M655.52752,143.15152c-.96997-1.02002-1.64996-12.25-2.84998-13,.47998,1.60999,.26001,13.62,.19,15.29999-10.56,7.20001-17.72003-11.29999-25.19-11.29999-13.53003,0-30-30.47003-30-44s17.0445-20.71585,29.5-26c16.5-7,31.5859,8.60133,33.5,22,5,35,.88,50.29999-5.15002,57Z"/><circle cx="623.133" cy="95.132" r="20.136" fill="#a0616a"/><path fill="#2f2e41" d="M593.83314,90.7602l10.03482,1.24559,2.46706-1.47676,.27426,1.81704c1.41176,.17524,2.8447-.37213,3.69761-1.51068,.68055-.90847,1.51898-1.69835,2.47507-2.30817-.12689,.66217-.22365,1.32917-.28992,1.99814-.1383,1.39599,.84148,2.65538,2.23362,2.82818l14.76955,1.8333c3.54424,.43994,5.71302,4.11469,4.38511,7.43009,0,0,3.58793-7.75774,6.79722-5.46539,7,5,27.1638-5.58817,9.99555-20.68783-5.44185-4.78617-9.84726-4.59366-18.4023-5.65557h0c-12.27869-8.6451-29.63321-4.15388-35.67794,9.59258-1.35402,3.0792-2.2873,6.55379-2.7597,10.35951Z"/><path fill="#a0616a" d="M638.22594,217.20462h-58.7876c4.92749-10.99533,7.95685-21.46701,3.22119-29.79648l55.56641-3.22122c-2.77679,11.24445-3.11621,22.27954,0,33.0177Z"/><path fill="#e6e6e6" d="M630.97814,119.76213l-23.35398-1.61062-9.66372,12.07965-4.89907,.89074c-7.34381,1.33524-12.5732,7.8888-12.24512,15.3458l1.9056,43.31268,55.82064,4.07026,13.3737-56.40211-16.10619-6.41205-4.83186-11.27434Z"/><g><polygon fill="#a0616a" points="641.129 474.26 631.56 474.486 626.226 431.495 640.348 431.161 641.129 474.26"/><path fill="#2f2e41" d="M608.29854,494.22447h0c0,1.61655,1.1472,2.92704,2.56235,2.92704h18.99405s1.86917-7.51357,9.49007-10.74708l.52598,10.74708h9.79837l-1.18718-17.28081s2.62111-9.24529-2.82238-13.97122c-5.44355-4.72593-1.03448-4.06805-1.03448-4.06805l-2.1414-10.69552-14.80639,1.74114-.10887,16.78946-7.18543,16.6651-10.53929,5.20624c-.93805,.46337-1.54529,1.51917-1.54529,2.68659l-.00012,.00003Z"/></g><g><polygon fill="#a0616a" points="606.129 473.26 596.56 473.486 591.226 430.495 605.348 430.161 606.129 473.26"/><path fill="#2f2e41" d="M573.29854,493.22447h0c0,1.61655,1.1472,2.92704,2.56235,2.92704h18.99405s1.86917-7.51357,9.49007-10.74708l.52598,10.74708h9.79837l-1.18718-17.28081s2.62111-9.24529-2.82238-13.97122c-5.44355-4.72593-1.03448-4.06805-1.03448-4.06805l-2.1414-10.69552-14.80639,1.74114-.10887,16.78946-7.18543,16.6651-10.53929,5.20624c-.93805,.46337-1.54529,1.51917-1.54529,2.68659l-.00012,.00003Z"/></g><path fill="#2f2e41" d="M581.67754,209.15152l-8,26-3,106,20.7891,98.16104,16.02847-2.21082,3.86894-135.41297,9.94871,135.41297,22.55033-.85287s18.81444-196.09735-4.86374-220.22953l-2.13902-9.11965-55.1828,2.25183Z"/><g><polygon fill="#a0616a" points="567.087 169.021 534.096 193.097 498.872 206.803 496.424 198.486 525.287 181.356 561.135 153.891 567.087 169.021"/><ellipse cx="491.598" cy="205.179" fill="#a0616a" rx="9.634" ry="5.72" transform="translate(-39.8764 241.26243) rotate(-26.53829)"/><path fill="#e6e6e6" d="M588.20507,134.6742s10.2495,14.07175,2.84195,19.60651c-7.40755,5.53476-29.85447,31.50633-29.85447,31.50633l-18.55234-20.40329,45.56485-30.70954Z"/></g><g><path fill="#6c63ff" d="M107.17754,0c-27.89039,0-50.5,22.60961-50.5,50.5,0,23.45518,20.56363,53.99852,39.8464,69.03578,1.73275,1.35125,3.66823,2.29223,5.6854,2.85419l1.89382,6.81771c.39369,1.41743,1.68428,2.39838,3.15536,2.39838h.2399c1.53493,0,2.8639-1.06609,3.19688-2.56445l1.55669-7.00508c1.68372-.59796,3.29491-1.46721,4.76067-2.61503,21.57859-16.89736,40.66488-44.67301,40.66488-68.9215C157.67754,22.60961,135.06793,0,107.17754,0Z"/><path fill="#3f3d56" d="M115.5942,125.48486c-6.06848,15.20361-10.94904,11.73953-15.30301,0v-3.06062h15.30302v3.06062Z"/><polygon fill="#3f3d56" points="108.708 123.962 108.364 152.816 108.348 153.795 108.279 254.03 108.279 258.682 108.264 260.152 106.726 260.152 106.741 258.759 106.741 254.03 106.818 153.795 106.902 146.886 107.178 123.947 108.708 123.962"/><polygon fill="#3f3d56" points="108.432 260.152 106.887 260.152 106.741 258.759 106.711 254.03 106.091 153.795 102.939 123.786 104.461 123.626 106.902 146.886 107.629 153.795 107.935 254.03 107.943 255.507 108.279 258.682 108.432 260.152"/><polygon fill="#3f3d56" points="112.947 123.786 109.794 153.795 108.907 254.03 108.853 260.152 107.453 260.152 107.943 255.507 107.95 254.03 108.256 153.795 108.364 152.816 111.424 123.626 112.947 123.786"/></g><g><path fill="#ff6584" d="M750.47097,134.51789c-16.78258-13.62546-41.43315-11.06611-55.05862,5.71647-11.4587,14.11377-14.0064,42.5388-9.74955,61.00754,.38252,1.65961,1.08746,3.17138,2.02672,4.49498l-2.19112,5.02765c-.45557,1.04525-.15821,2.26602,.72699,2.9847l.14436,.1172c.92362,.74987,2.24413,.75761,3.1765,.01867l4.35895-3.45469c1.30527,.46274,2.69944,.72681,4.14219,.75221,21.23953,.37421,46.2938-7.01499,58.14006-21.60612,13.62546-16.78258,11.06611-41.43315-5.71647-55.05862Z"/><path fill="#3f3d56" d="M694.23168,214.13818c-16.52942,10.90488-15.56281,4.39578-9.20831-7.47607l1.49519-1.84168,9.20835,7.47608-1.49523,1.84167Z"/><polygon fill="#3f3d56" points="690.832 209.858 676.528 227.052 676.041 227.634 627.031 287.915 624.758 290.714 624.031 291.591 623.106 290.839 623.795 290.009 626.106 287.163 675.12 226.886 678.546 222.77 689.918 209.101 690.832 209.858"/><polygon fill="#3f3d56" points="624.133 291.673 623.203 290.918 623.795 290.009 626.087 287.148 674.683 226.531 687.446 206.933 688.441 207.581 678.546 222.77 675.608 227.282 626.824 287.747 626.107 288.639 624.758 290.714 624.133 291.673"/><polygon fill="#3f3d56" points="693.468 211.823 676.911 228.34 627.409 288.221 624.386 291.878 623.543 291.194 626.107 288.639 626.833 287.754 675.986 227.589 676.528 227.052 692.631 210.982 693.468 211.823"/></g><g><path fill="#6c63ff" d="M439.1389,46.1396c-21.44577,10.51596-30.30614,36.42604-19.79018,57.87181,8.84368,18.03541,36.17193,33.76769,56.66877,38.05981,1.84185,.38569,3.68489,.37947,5.44784,.05102l4.02681,4.52829c.83716,.94146,2.19939,1.20914,3.33056,.65447l.18447-.09045c1.18025-.57874,1.80017-1.89957,1.49126-3.17726l-1.44425-5.97336c1.0692-1.09463,1.98035-2.37051,2.67464-3.80577,10.22136-21.12902,14.4247-49.68297,5.28191-68.32838-10.51596-21.44577-36.42604-30.30614-57.87181-19.79018Z"/><path fill="#3f3d56" d="M492.92425,139.45529c-.32532,8.02927-2.76648,12.46704-11.76697,5.76993l-1.15396-2.35339,11.76697-5.76994,1.15396,2.3534Z"/><polygon fill="#3f3d56" points="487.055 140.881 497.669 163.197 498.027 163.956 489.898 245.643 491.652 249.22 492.194 250.355 491.012 250.935 490.498 249.859 488.715 246.223 496.85 164.533 494.31 159.189 485.873 141.446 487.055 140.881"/><polygon fill="#3f3d56" points="492.324 250.292 491.135 250.875 490.498 249.859 488.692 246.234 496.291 164.807 482.553 142.921 483.663 142.223 494.31 159.189 497.474 164.227 489.633 245.773 490.196 246.905 491.652 249.22 492.324 250.292"/><polygon fill="#3f3d56" points="490.248 139.147 499.139 163.411 490.38 245.406 492.647 250.133 491.571 250.661 490.196 246.905 489.645 245.767 497.956 163.991 497.669 163.197 489.017 139.598 490.248 139.147"/></g><path fill="#ccc" d="M0,515.86805c0,.66003,.53003,1.19,1.19006,1.19H404.48004c.65997,0,1.19-.52997,1.19-1.19,0-.65997-.53003-1.19-1.19-1.19H1.19006c-.66003,0-1.19006,.53003-1.19006,1.19Z"/><path fill="#ccc" d="M435,495.86805c0,.66003,.53003,1.19,1.19006,1.19h403.28998c.65997,0,1.19-.52997,1.19-1.19,0-.65997-.53003-1.19-1.19-1.19H436.19006c-.66003,0-1.19006,.53003-1.19006,1.19Z"/><polygon fill="#a0616a" points="659.004 184.394 658.48 225.233 648.318 261.638 640.195 258.608 643.802 225.239 643.328 180.082 659.004 184.394"/><ellipse cx="642.655" cy="266.484" fill="#a0616a" rx="9.634" ry="5.72" transform="translate(265.36337 851.00999) rotate(-79.68097)"/><path fill="#e6e6e6" d="M646.67348,135.7674s17.40715,.23962,17.39246,9.48652-1.92406,43.6615-1.92406,43.6615l-27.45346,2.60593,11.98506-55.75395Z"/></svg>